<svg id="Capa_1" enable-background="new 0 0 512 512" height="512" viewBox="0 0 512 512" width="512" xmlns="http://www.w3.org/2000/svg"><g><g><path d="m418.995 165.085-35.715-35.715 28.572-28.572c3.945-3.945 10.341-3.945 14.286 0l21.429 21.429c3.945 3.945 3.945 10.341 0 14.286z" fill="#f9f6f9"/></g><g><path d="m93.005 165.085 35.715-35.715-28.572-28.572c-3.945-3.945-10.341-3.945-14.286 0l-21.429 21.429c-3.945 3.945-3.945 10.341 0 14.286z" fill="#f9f6f9"/></g><g><path d="m220.644 47.907h70.711v36.366h-70.711z" fill="#454545"/></g><g><circle cx="256" cy="292.366" fill="#9dc6fb" r="212.134"/></g><g><path d="m395.02 132.133c32.33 37.231 51.901 85.839 51.901 139.02 0 117.158-94.976 212.134-212.134 212.134-53.18 0-101.788-19.571-139.02-51.901 38.894 44.79 96.255 73.114 160.233 73.114 117.158 0 212.134-94.976 212.134-212.134 0-63.978-28.324-121.339-73.114-160.233z" fill="#80b4fb"/></g><g><circle cx="256" cy="292.366" fill="#f9f6f9" r="175.768"/></g><g><path d="m353.612 146.266c18.729 27.941 29.668 61.522 29.668 97.612 0 96.919-78.849 175.768-175.768 175.768-36.09 0-69.671-10.94-97.612-29.668 31.567 47.093 85.271 78.156 146.1 78.156 96.919 0 175.768-78.849 175.768-175.768 0-60.829-31.063-114.533-78.156-146.1z" fill="#dfdde2"/></g><g><path d="m195.39 7.5h121.22v40.407h-121.22z" fill="#9dc6fb"/></g><g><path d="m285.295 7.5h31.315v40.407h-31.315z" fill="#80b4fb"/></g><g><path d="m334.572 213.794-97.858 59.286 38.572 38.572z" fill="#e28086"/></g><g><path d="m177.428 370.938 97.858-59.286-38.572-38.572z" fill="#818181"/></g><g><circle cx="256" cy="292.366" fill="#9dc6fb" r="30.305"/></g><g><path d="m432.761 161.929 20.111-20.118c6.861-6.862 6.86-18.028-.001-24.891l-21.426-21.426c-6.861-6.862-18.027-6.862-24.89-.002l-20.118 20.112c-26.068-19.321-55.865-32.476-87.577-38.715v-21.482h17.75c4.142 0 7.5-3.358 7.5-7.5v-40.407c0-4.142-3.358-7.5-7.5-7.5h-67.11c-4.142 0-7.5 3.358-7.5 7.5s3.358 7.5 7.5 7.5h59.61v25.407h-106.22v-25.407h11.567c4.142 0 7.5-3.358 7.5-7.5s-3.357-7.5-7.499-7.5h-19.068c-4.142 0-7.5 3.358-7.5 7.5v40.407c0 4.142 3.358 7.5 7.5 7.5h17.75v21.513c-10.149 2.008-20.147 4.727-29.941 8.166-3.908 1.373-5.963 5.653-4.591 9.562 1.373 3.908 5.651 5.962 9.562 4.591 21.741-7.636 44.563-11.507 67.83-11.507 112.836 0 204.634 91.798 204.634 204.634s-91.798 204.634-204.634 204.634-204.634-91.798-204.634-204.634c0-74.521 40.568-143.212 105.873-179.269 3.626-2.002 4.943-6.565 2.941-10.191s-6.565-4.943-10.191-2.941c-8.541 4.716-16.684 9.955-24.405 15.659l-20.138-20.131c-6.863-6.86-18.029-6.86-24.89.002l-21.426 21.426c-6.861 6.862-6.862 18.028-.001 24.89l20.151 20.159c-27.403 37.16-42.914 82.662-42.914 130.396 0 58.667 22.846 113.822 64.33 155.305 41.482 41.483 96.637 64.329 155.304 64.329s113.822-22.846 155.305-64.33c41.484-41.483 64.33-96.638 64.33-155.305-.001-47.599-15.042-92.886-42.874-130.436zm-204.621-87.448v-19.074h55.72v19.071c-9.169-1.154-18.469-1.746-27.86-1.746-9.365 0-18.663.585-27.86 1.749zm170.104 50.53 18.916-18.91c1.015-1.013 2.666-1.014 3.679 0l21.425 21.426c1.014 1.014 1.015 2.665 0 3.679l-18.91 18.916c-3.825-4.485-7.836-8.847-12.05-13.061-4.213-4.214-8.575-8.225-13.06-12.05zm-328.509 6.195c-1.014-1.014-1.013-2.665 0-3.679l21.426-21.426c1.015-1.014 2.665-1.014 3.679 0l18.911 18.905c-9.075 7.721-17.457 16.132-25.096 25.126z"/><path d="m365.118 420.356c-3.15 2.689-3.523 7.424-.833 10.574 2.689 3.15 7.424 3.523 10.574.833 40.934-34.952 64.41-85.76 64.41-139.398 0-101.054-82.214-183.268-183.268-183.268s-183.269 82.215-183.269 183.269c0 101.055 82.214 183.269 183.268 183.269 31.049 0 61.75-7.945 88.784-22.975 3.62-2.013 4.923-6.58 2.911-10.2-2.013-3.62-6.577-4.923-10.2-2.91-22.63 12.582-48.067 19.734-73.995 20.896v-12.515c0-4.142-3.358-7.5-7.5-7.5s-7.5 3.358-7.5 7.5v12.528c-86.828-3.828-156.764-73.764-160.592-160.593h12.527c4.142 0 7.5-3.358 7.5-7.5s-3.358-7.5-7.5-7.5h-12.527c3.828-86.828 73.764-156.764 160.592-160.592v12.527c0 4.142 3.358 7.5 7.5 7.5s7.5-3.358 7.5-7.5v-12.527c86.828 3.828 156.764 73.764 160.592 160.592h-12.527c-4.142 0-7.5 3.358-7.5 7.5s3.358 7.5 7.5 7.5h12.522c-2.071 46.454-23.293 90.028-58.969 120.49z"/><path d="m177.432 378.437c1.335 0 2.679-.355 3.883-1.085l78.185-47.362c8.483-.783 16.752-4.411 23.232-10.891 6.303-6.303 10.098-14.452 10.895-23.239l47.358-78.178c1.789-2.954 1.33-6.747-1.112-9.189s-6.236-2.903-9.189-1.111l-78.184 47.361c-8.484.782-16.752 4.41-23.233 10.891-6.303 6.303-10.098 14.453-10.895 23.239l-47.358 78.178c-1.789 2.954-1.33 6.747 1.112 9.189 1.447 1.446 3.367 2.197 5.306 2.197zm111.752-104.195c-1.709-3.123-3.867-6.023-6.452-8.609-2.616-2.616-5.526-4.758-8.621-6.445l38.216-23.15zm-49.309 1.998c4.446-4.446 10.286-6.668 16.125-6.668s11.68 2.223 16.125 6.668c4.298 4.298 6.665 10.025 6.665 16.125s-2.367 11.828-6.665 16.125c-8.892 8.892-23.359 8.892-32.251 0-4.298-4.298-6.665-10.025-6.665-16.125s2.368-11.826 6.666-16.125zm-18.061 32.3c1.832 3.873 4.337 7.441 7.454 10.558 2.616 2.616 5.526 4.758 8.62 6.446l-38.216 23.15z"/><path d="m180.238 224.104c1.919 0 3.839-.732 5.303-2.197 2.929-2.929 2.929-7.678 0-10.606l-16.163-16.163c-2.929-2.929-7.678-2.929-10.606 0-2.929 2.929-2.929 7.678 0 10.606l16.163 16.163c1.464 1.464 3.383 2.197 5.303 2.197z"/><path d="m342.622 389.594c1.464 1.464 3.384 2.197 5.303 2.197s3.839-.732 5.303-2.197c2.929-2.929 2.929-7.678 0-10.606l-16.163-16.163c-2.929-2.929-7.678-2.929-10.606 0-2.929 2.929-2.929 7.678 0 10.606z"/></g></g></svg>